<svg width="75" height="68" viewBox="0 0 75 68" fill="none" xmlns="http://www.w3.org/2000/svg">
<rect width="75" height="68" rx="10" fill="white"/>
<path d="M44.8149 23.4093L39.0085 24.513C39.1236 24.3979 38.0968 19.2825 37.569 16.7392L26.916 28.6878L35.3137 33.1985L32.5305 38.3331C32.1071 38.1939 29.8048 36.9684 23.125 33.1985C19.9771 30.1274 21.2056 26.6084 22.2133 25.2328L33.682 12.4684C36.8924 9.91719 39.7284 11.1727 41.5998 12.6124C43.4712 14.052 44.2818 19.362 44.8149 23.4093Z" fill="url(#paint0_linear_788_106)"/>
<path d="M23.7468 34.7609L27.6058 39.2375C27.4485 39.1954 23.5319 42.6423 21.5932 44.3711L37.2675 47.6225L36.9751 38.0946L42.8134 37.9376C42.9045 38.3739 42.9943 40.9805 43.0694 48.6503C41.9837 52.912 38.3219 53.6076 36.6268 53.4227L19.8381 49.8727C16.0235 48.3681 15.6928 45.2842 16.0039 42.9437C16.3149 40.6032 20.5083 37.2462 23.7468 34.7609Z" fill="url(#paint1_linear_788_106)"/>
<path d="M43.6792 47.2747L45.6266 41.6944C45.6688 41.8516 50.6122 43.5201 53.0787 44.3347L48.0574 29.1346L39.9521 34.1518L36.8971 29.1742C37.2294 28.8771 39.4418 27.496 46.0465 23.5961C50.2801 22.4055 52.7134 25.2288 53.4009 26.7894L58.7208 43.1038C59.325 47.1596 56.8196 48.988 54.6372 49.8888C52.4548 50.7897 47.4508 48.8366 43.6792 47.2747Z" fill="url(#paint2_linear_788_106)"/>
<defs>
<linearGradient id="paint0_linear_788_106" x1="21.1086" y1="11" x2="46.2671" y2="32.191" gradientUnits="userSpaceOnUse">
<stop stop-color="white"/>
<stop offset="0.740136" stop-color="#69C0DC"/>
</linearGradient>
<linearGradient id="paint1_linear_788_106" x1="24.8532" y1="61.4958" x2="30.6259" y2="29.1124" gradientUnits="userSpaceOnUse">
<stop stop-color="white"/>
<stop offset="0.740136" stop-color="#69C0DC"/>
</linearGradient>
<linearGradient id="paint2_linear_788_106" x1="66.2792" y1="51.2016" x2="32.0211" y2="37.1302" gradientUnits="userSpaceOnUse">
<stop stop-color="white"/>
<stop offset="0.740136" stop-color="#69C0DC"/>
</linearGradient>
</defs>
</svg>
